<svg id="Layer_1" data-name="Layer 1" xmlns="http://www.w3.org/2000/svg" viewBox="0 0 220 220"><defs><style>.cls-1{fill:#a0d0cc;}.cls-2{fill:#da5552;}</style></defs><path d="M163.55,83.33l19.5-26s0-.11.06-.16.1-.07.13-.12a3.6,3.6,0,0,0,.34-1.1,2.67,2.67,0,0,0-.18-2.51L172.27,31.17A3.63,3.63,0,0,0,169,29.28v-.17H124.4v.17a3.63,3.63,0,0,0-3.32,1.89L109.94,53.44a2.69,2.69,0,0,0-.17,2.51,3.6,3.6,0,0,0,.34,1.1c0,.05.09.07.13.12s0,.11.06.16l19.56,26.08a66.17,66.17,0,0,0-20.18,9A66.48,66.48,0,0,0,84.2,82.12a3.71,3.71,0,0,0-1.3,7.31A59,59,0,0,1,107.51,100s.09.08.15.11a59,59,0,0,1,9.89,9.19h0l0,0A59.31,59.31,0,0,1,120,183.46a45.6,45.6,0,0,1-5.68-5.08,51.51,51.51,0,0,0-10.71-72.06q-1.34-1-2.73-1.89l0,0c-.08-.07-.18-.08-.26-.14a50.57,50.57,0,0,0-35.65-7.72c21-27,13.5-44.3,10.39-49.28a21.66,21.66,0,0,0-24.49-9.87A20.1,20.1,0,0,0,38.15,51a20.09,20.09,0,0,0-18.27-3.48A21.62,21.62,0,0,0,6,70C6.48,76,10.81,94.72,44.9,103.9a51.86,51.86,0,0,0,52.77,89.28,66.15,66.15,0,0,0,5.51,5.34,59.3,59.3,0,0,1-75.3-89.89,3.72,3.72,0,0,0-5.57-4.92h0a66.71,66.71,0,0,0,87.13,99.65,66.78,66.78,0,1,0,54.11-120Zm-24.3,64.57a66.69,66.69,0,0,0-12.93-39.5,44.51,44.51,0,1,1-.08,79A66.89,66.89,0,0,0,139.25,147.9Zm-29.78,24.44a43.92,43.92,0,0,1,.17-48.87A43.94,43.94,0,0,1,109.47,172.34Zm-37,20.11a44.55,44.55,0,1,1,20.43-84.09,66.47,66.47,0,0,0,0,79A44.26,44.26,0,0,1,72.43,192.45Zm74.24,14.85a59.33,59.33,0,0,1-47.51-95,45.52,45.52,0,0,1,5.67,5.07,52.12,52.12,0,1,0,16.68-14.83A66.14,66.14,0,0,0,116,97.23a58.57,58.57,0,0,1,20.85-7.89c.53-.08,1.07-.11,1.6-.19a59.35,59.35,0,0,1,8.2-.64c1.7,0,3.38.11,5,.25,1.12.11,2.24.24,3.34.41a59.36,59.36,0,0,1-8.38,118.13Z"/><polygon class="cls-1" points="168.95 41.12 174.08 51.38 163.82 51.38 168.95 41.12"/><path class="cls-1" d="M172.66,58.81,155.51,81.68c-.4-.06-.83-.08-1.24-.13h0l5.67-22.73Z"/><polygon class="cls-1" points="162.94 36.53 157.81 46.79 152.68 36.53 162.94 36.53"/><path class="cls-1" d="M152.24,58.81,146.78,80.7a2.41,2.41,0,0,0,0,.38h-.19c0-.13,0-.25,0-.38l-5.46-21.89Z"/><polygon class="cls-1" points="146.67 41.12 151.8 51.38 141.54 51.38 146.67 41.12"/><polygon class="cls-1" points="140.67 36.53 135.54 46.79 130.41 36.53 140.67 36.53"/><path class="cls-1" d="M133.45,58.81l5.67,22.73c-.42,0-.86.08-1.28.14L120.69,58.81Z"/><polygon class="cls-1" points="124.4 41.12 129.53 51.38 119.27 51.38 124.4 41.12"/><path class="cls-2" d="M69,51.18c2.66,4.27,9.26,20.13-15.26,47.21C17.9,91.14,13.81,74.46,13.42,69.44a14.15,14.15,0,0,1,8.77-14.83,10.24,10.24,0,0,1,3.29-.52,15.44,15.44,0,0,1,9.84,4.15,5.84,5.84,0,0,0,5.56,1.09,5.76,5.76,0,0,0,3.82-4.18,13.72,13.72,0,0,1,8.41-10.71A14.19,14.19,0,0,1,69,51.18Z"/><path d="M146.67,21.69A3.72,3.72,0,0,0,150.39,18h0V10.55a3.72,3.72,0,0,0-7.43,0V18a3.71,3.71,0,0,0,3.71,3.71ZM125.49,20.6a3.71,3.71,0,0,0,5.25-5.25l-7.43-7.42a3.71,3.71,0,0,0-5.25,5.25Zm39.75,1.09a3.7,3.7,0,0,0,2.62-1.09l7.42-7.42A3.71,3.71,0,0,0,170,7.93l-7.43,7.42a3.72,3.72,0,0,0,2.63,6.34ZM64.35,64.1a3.72,3.72,0,1,0-7.4-.69,35,35,0,0,1-7.06,16.07A3.71,3.71,0,0,0,56,83.72h0A43.55,43.55,0,0,0,64.35,64.1Z"/></svg>